{
  "accessors": [
    {
      "bufferView": 2,
      "componentType": 5126,
      "count": 182,
      "max": [
        0.7470043897628784,
        1.0,
        0.18720793724060059
      ],
      "min": [
        -0.7223548293113708,
        -1.0,
        -0.18720793724060059
      ],
      "type": "VEC3"
    },
    {
      "bufferView": 2,
      "byteOffset": 2184,
      "componentType": 5126,
      "count": 182,
      "max": [
        0.9717901349067688,
        0.9726556539535522,
        0.9941805005073547
      ],
      "min": [
        -0.9232696890830994,
        -0.9726556539535522,
        -0.9941805005073547
      ],
      "type": "VEC3"
    },
    {
      "bufferView": 3,
      "componentType": 5126,
      "count": 182,
      "max": [
        0.9388132095336914,
        1.0,
        0.9725278615951538,
        1.0
      ],
      "min": [
        -0.9388065934181213,
        -0.9973660707473755,
        -0.9999520778656006,
        1.0
      ],
      "type": "VEC4"
    },
    {
      "bufferView": 1,
      "componentType": 5126,
      "count": 182,
      "max": [
        0.748005211353302,
        0.9998189806938171
      ],
      "min": [
        0.025037258863449097,
        0.00018097460269927979
      ],
      "type": "VEC2"
    },
    {
      "bufferView": 0,
      "componentType": 5125,
      "count": 780,
      "type": "SCALAR"
    },
    {
      "bufferView": 2,
      "byteOffset": 4368,
      "componentType": 5126,
      "count": 216,
      "max": [
        0.7710055708885193,
        0.725508987903595,
        0.4074569642543793
      ],
      "min": [
        0.15307986736297607,
        -0.725508987903595,
        -0.013815850019454956
      ],
      "type": "VEC3"
    },
    {
      "bufferView": 2,
      "byteOffset": 6960,
      "componentType": 5126,
      "count": 216,
      "max": [
        0.9244801998138428,
        0.9560068249702454,
        0.9259979128837585
      ],
      "min": [
        -0.9268807768821716,
        -0.9560064673423767,
        -0.9259997606277466
      ],
      "type": "VEC3"
    },
    {
      "bufferView": 3,
      "byteOffset": 2912,
      "componentType": 5126,
      "count": 216,
      "max": [
        0.9256584048271179,
        0.9638636708259583,
        0.9084678888320923,
        1.0
      ],
      "min": [
        -0.9270617961883545,
        -0.9638641476631165,
        -0.9083581566810608,
        1.0
      ],
      "type": "VEC4"
    },
    {
      "bufferView": 1,
      "byteOffset": 1456,
      "componentType": 5126,
      "count": 216,
      "max": [
        0.9179773926734924,
        0.7880390286445618
      ],
      "min": [
        0.7633336186408997,
        0.20611634850502014
      ],
      "type": "VEC2"
    },
    {
      "bufferView": 0,
      "byteOffset": 3120,
      "componentType": 5125,
      "count": 936,
      "type": "SCALAR"
    },
    {
      "bufferView": 2,
      "byteOffset": 9552,
      "componentType": 5126,
      "count": 72,
      "max": [
        0.6384033560752869,
        0.7397754788398743,
        0.4143082797527313
      ],
      "min": [
        0.39407461881637573,
        -0.7397754788398743,
        0.3868732452392578
      ],
      "type": "VEC3"
    },
    {
      "bufferView": 2,
      "byteOffset": 10416,
      "componentType": 5126,
      "count": 72,
      "max": [
        0.8755776286125183,
        0.8755800127983093,
        0.8755802512168884
      ],
      "min": [
        -0.8755795955657959,
        -0.8755800127983093,
        -0.8755803108215332
      ],
      "type": "VEC3"
    },
    {
      "bufferView": 3,
      "byteOffset": 6368,
      "componentType": 5126,
      "count": 72,
      "max": [
        0.9398300051689148,
        0.9160677790641785,
        0.9397366642951965,
        1.0
      ],
      "min": [
        -0.3238697350025177,
        -0.9160662293434143,
        -0.9398407936096191,
        1.0
      ],
      "type": "VEC4"
    },
    {
      "bufferView": 1,
      "byteOffset": 3184,
      "componentType": 5126,
      "count": 72,
      "max": [
        0.9874255657196045,
        0.4782302975654602
      ],
      "min": [
        0.9183716773986816,
        0.20611631870269775
      ],
      "type": "VEC2"
    },
    {
      "bufferView": 0,
      "byteOffset": 6864,
      "componentType": 5125,
      "count": 264,
      "type": "SCALAR"
    }
  ],
  "asset": {
    "extras": {
      "author": "Darren McNerney 3D (https://sketchfab.com/DarrenMcnerney3D)",
      "license": "CC-BY-4.0 (http://creativecommons.org/licenses/by/4.0/)",
      "source": "https://sketchfab.com/3d-models/spell-book-28be8007855945fb9aebdbd080d71b4f",
      "title": "Spell Book"
    },
    "generator": "Sketchfab-15.32.0",
    "version": "2.0"
  },
  "bufferViews": [
    {
      "buffer": 0,
      "byteLength": 7920,
      "name": "floatBufferViews",
      "target": 34963
    },
    {
      "buffer": 0,
      "byteLength": 3760,
      "byteOffset": 7920,
      "byteStride": 8,
      "name": "floatBufferViews",
      "target": 34962
    },
    {
      "buffer": 0,
      "byteLength": 11280,
      "byteOffset": 11680,
      "byteStride": 12,
      "name": "floatBufferViews",
      "target": 34962
    },
    {
      "buffer": 0,
      "byteLength": 7520,
      "byteOffset": 22960,
      "byteStride": 16,
      "name": "floatBufferViews",
      "target": 34962
    }
  ],
  "buffers": [
    {
      "byteLength": 30480,
      "uri": "scene.bin"
    }
  ],
  "images": [
    {
      "uri": "textures/Scene_-_Root_baseColor.png"
    },
    {
      "uri": "textures/Scene_-_Root_metallicRoughness.png"
    },
    {
      "uri": "textures/Scene_-_Root_normal.png"
    }
  ],
  "materials": [
    {
      "doubleSided": true,
      "name": "Scene_-_Root",
      "normalTexture": {
        "index": 2
      },
      "pbrMetallicRoughness": {
        "baseColorTexture": {
          "index": 0
        },
        "metallicRoughnessTexture": {
          "index": 1
        }
      }
    }
  ],
  "meshes": [
    {
      "name": "Book_low__0",
      "primitives": [
        {
          "attributes": {
            "NORMAL": 1,
            "POSITION": 0,
            "TANGENT": 2,
            "TEXCOORD_0": 3
          },
          "indices": 4,
          "material": 0,
          "mode": 4
        }
      ]
    },
    {
      "name": "Straps_low__0",
      "primitives": [
        {
          "attributes": {
            "NORMAL": 6,
            "POSITION": 5,
            "TANGENT": 7,
            "TEXCOORD_0": 8
          },
          "indices": 9,
          "material": 0,
          "mode": 4
        }
      ]
    },
    {
      "name": "Clamps_low__0",
      "primitives": [
        {
          "attributes": {
            "NORMAL": 11,
            "POSITION": 10,
            "TANGENT": 12,
            "TEXCOORD_0": 13
          },
          "indices": 14,
          "material": 0,
          "mode": 4
        }
      ]
    }
  ],
  "nodes": [
    {
      "children": [
        1
      ],
      "matrix": [
        0.21221110224723816,
        0.0,
        0.0,
        0.0,
        0.0,
        4.712033035919342e-17,
        -0.21221110224723816,
        0.0,
        0.0,
        0.21221110224723816,
        4.712033035919342e-17,
        0.0,
        0.0,
        0.0,
        0.0,
        1.0
      ],
      "name": "Sketchfab_model"
    },
    {
      "children": [
        2
      ],
      "matrix": [
        0.009999999776482582,
        0.0,
        0.0,
        0.0,
        0.0,
        0.0,
        0.009999999776482582,
        0.0,
        0.0,
        -0.009999999776482582,
        0.0,
        0.0,
        0.0,
        0.0,
        0.0,
        1.0
      ],
      "name": "95e009d21c5b476092196d986a30cbbc.fbx"
    },
    {
      "children": [
        3,
        5,
        7
      ],
      "name": "RootNode"
    },
    {
      "children": [
        4
      ],
      "matrix": [
        100.0,
        0.0,
        0.0,
        0.0,
        0.0,
        -1.629206793918314e-05,
        -99.99999999999868,
        0.0,
        0.0,
        99.99999999999868,
        -1.629206793918314e-05,
        0.0,
        0.0,
        19.40264320373535,
        0.0,
        1.0
      ],
      "name": "Book_low"
    },
    {
      "mesh": 0,
      "name": "Book_low__0"
    },
    {
      "children": [
        6
      ],
      "matrix": [
        100.0,
        0.0,
        0.0,
        0.0,
        0.0,
        -1.629206793918314e-05,
        -99.99999999999868,
        0.0,
        0.0,
        99.99999999999868,
        -1.629206793918314e-05,
        0.0,
        0.0,
        0.0,
        0.0,
        1.0
      ],
      "name": "Straps_low"
    },
    {
      "mesh": 1,
      "name": "Straps_low__0"
    },
    {
      "children": [
        8
      ],
      "matrix": [
        100.0,
        0.0,
        0.0,
        0.0,
        0.0,
        -1.629206793918314e-05,
        -99.99999999999868,
        0.0,
        0.0,
        99.99999999999868,
        -1.629206793918314e-05,
        0.0,
        0.0,
        0.0,
        0.0,
        1.0
      ],
      "name": "Clamps_low"
    },
    {
      "mesh": 2,
      "name": "Clamps_low__0"
    }
  ],
  "samplers": [
    {
      "magFilter": 9729,
      "minFilter": 9987,
      "wrapS": 10497,
      "wrapT": 10497
    }
  ],
  "scene": 0,
  "scenes": [
    {
      "name": "Sketchfab_Scene",
      "nodes": [
        0
      ]
    }
  ],
  "textures": [
    {
      "sampler": 0,
      "source": 0
    },
    {
      "sampler": 0,
      "source": 1
    },
    {
      "sampler": 0,
      "source": 2
    }
  ]
}
