{
  "accessors": [
    {
      "bufferView": 2,
      "componentType": 5126,
      "count": 2186,
      "max": [
        228.13365173339844,
        133.34600830078125,
        117.94923400878906
      ],
      "min": [
        -228.13365173339844,
        -38.81511306762695,
        -146.1553955078125
      ],
      "type": "VEC3"
    },
    {
      "bufferView": 2,
      "byteOffset": 26232,
      "componentType": 5126,
      "count": 2186,
      "max": [
        0.9999871253967285,
        0.9992971420288086,
        0.9851606488227844
      ],
      "min": [
        -0.9998936057090759,
        -0.9989244937896729,
        -0.9977603554725647
      ],
      "type": "VEC3"
    },
    {
      "bufferView": 3,
      "componentType": 5126,
      "count": 2186,
      "max": [
        0.9999983310699463,
        0.9987276196479797,
        0.9998630285263062,
        1.0
      ],
      "min": [
        -0.9999945759773254,
        -0.9811426401138306,
        -0.998917818069458,
        -1.0
      ],
      "type": "VEC4"
    },
    {
      "bufferView": 1,
      "componentType": 5126,
      "count": 2186,
      "max": [
        0.9974619746208191,
        0.9975590109825134
      ],
      "min": [
        0.002440999960526824,
        0.002440999960526824
      ],
      "type": "VEC2"
    },
    {
      "bufferView": 0,
      "componentType": 5125,
      "count": 9474,
      "type": "SCALAR"
    },
    {
      "bufferView": 2,
      "byteOffset": 52464,
      "componentType": 5126,
      "count": 815,
      "max": [
        209.7867889404297,
        115.34664154052734,
        146.1553955078125
      ],
      "min": [
        -161.27774047851563,
        -133.34600830078125,
        -135.56324768066406
      ],
      "type": "VEC3"
    },
    {
      "bufferView": 2,
      "byteOffset": 62244,
      "componentType": 5126,
      "count": 815,
      "max": [
        0.9995143413543701,
        0.935180127620697,
        0.9726462364196777
      ],
      "min": [
        -0.9991853833198547,
        -0.9906971454620361,
        -0.9485595226287842
      ],
      "type": "VEC3"
    },
    {
      "bufferView": 1,
      "byteOffset": 17488,
      "componentType": 5126,
      "count": 815,
      "max": [
        1.9954270124435425,
        0.9975590109825134
      ],
      "min": [
        1.0024410486221313,
        0.002440999960526824
      ],
      "type": "VEC2"
    },
    {
      "bufferView": 0,
      "byteOffset": 37896,
      "componentType": 5125,
      "count": 2364,
      "type": "SCALAR"
    }
  ],
  "asset": {
    "extras": {
      "author": "katrin.kor (https://sketchfab.com/katrin.701)",
      "license": "CC-BY-4.0 (http://creativecommons.org/licenses/by/4.0/)",
      "source": "https://sketchfab.com/3d-models/viking-book-c23b8c487c3c455cb8ff970a3ec3a5c2",
      "title": "Viking book"
    },
    "generator": "Sketchfab-12.66.0",
    "version": "2.0"
  },
  "bufferViews": [
    {
      "buffer": 0,
      "byteLength": 47352,
      "name": "floatBufferViews",
      "target": 34963
    },
    {
      "buffer": 0,
      "byteLength": 24008,
      "byteOffset": 47352,
      "byteStride": 8,
      "name": "floatBufferViews",
      "target": 34962
    },
    {
      "buffer": 0,
      "byteLength": 72024,
      "byteOffset": 71360,
      "byteStride": 12,
      "name": "floatBufferViews",
      "target": 34962
    },
    {
      "buffer": 0,
      "byteLength": 34976,
      "byteOffset": 143384,
      "byteStride": 16,
      "name": "floatBufferViews",
      "target": 34962
    }
  ],
  "buffers": [
    {
      "byteLength": 178360,
      "uri": "scene.bin"
    }
  ],
  "images": [
    {
      "uri": "textures/MeshSG_baseColor.png"
    },
    {
      "uri": "textures/MeshSG_metallicRoughness.png"
    },
    {
      "uri": "textures/MeshSG_emissive.png"
    },
    {
      "uri": "textures/MeshSG_normal.png"
    },
    {
      "uri": "textures/lambert5SG_baseColor.png"
    },
    {
      "uri": "textures/lambert5SG_emissive.png"
    }
  ],
  "materials": [
    {
      "doubleSided": true,
      "emissiveFactor": [
        1.0,
        1.0,
        1.0
      ],
      "emissiveTexture": {
        "index": 2
      },
      "name": "MeshSG",
      "normalTexture": {
        "index": 3
      },
      "pbrMetallicRoughness": {
        "baseColorTexture": {
          "index": 0
        },
        "metallicRoughnessTexture": {
          "index": 1
        }
      }
    },
    {
      "alphaMode": "BLEND",
      "doubleSided": true,
      "emissiveFactor": [
        1.0,
        1.0,
        1.0
      ],
      "emissiveTexture": {
        "index": 5
      },
      "name": "lambert5SG",
      "pbrMetallicRoughness": {
        "baseColorFactor": [
          0.4938572884547415,
          0.4938572884547415,
          0.4938572884547415,
          1.0
        ],
        "baseColorTexture": {
          "index": 4
        },
        "metallicFactor": 0.0
      }
    }
  ],
  "meshes": [
    {
      "name": "Object_0",
      "primitives": [
        {
          "attributes": {
            "NORMAL": 1,
            "POSITION": 0,
            "TANGENT": 2,
            "TEXCOORD_0": 3
          },
          "indices": 4,
          "material": 0,
          "mode": 4
        }
      ]
    },
    {
      "name": "Object_1",
      "primitives": [
        {
          "attributes": {
            "NORMAL": 6,
            "POSITION": 5,
            "TEXCOORD_0": 7
          },
          "indices": 8,
          "material": 1,
          "mode": 4
        }
      ]
    }
  ],
  "nodes": [
    {
      "children": [
        1
      ],
      "matrix": [
        1.0,
        0.0,
        0.0,
        0.0,
        0.0,
        2.220446049250313e-16,
        -1.0,
        0.0,
        0.0,
        1.0,
        2.220446049250313e-16,
        0.0,
        0.0,
        0.0,
        0.0,
        1.0
      ],
      "name": "Sketchfab_model"
    },
    {
      "children": [
        2,
        3
      ],
      "name": "48198c4a50784042abccd2a16aed1bf1.obj.cleaner.materialmerger.gles"
    },
    {
      "mesh": 0,
      "name": "Object_2"
    },
    {
      "mesh": 1,
      "name": "Object_3"
    }
  ],
  "samplers": [
    {
      "magFilter": 9729,
      "minFilter": 9987,
      "wrapS": 10497,
      "wrapT": 10497
    }
  ],
  "scene": 0,
  "scenes": [
    {
      "name": "Sketchfab_Scene",
      "nodes": [
        0
      ]
    }
  ],
  "textures": [
    {
      "sampler": 0,
      "source": 0
    },
    {
      "sampler": 0,
      "source": 1
    },
    {
      "sampler": 0,
      "source": 2
    },
    {
      "sampler": 0,
      "source": 3
    },
    {
      "sampler": 0,
      "source": 4
    },
    {
      "sampler": 0,
      "source": 5
    }
  ]
}
